<?xml version="1.0" encoding="UTF-8"?>
<svg width="350pt" height="350pt" version="1.1" viewBox="0 0 1200 1200" xmlns="http://www.w3.org/2000/svg">
 <path d="m1033.9 467.02c0.75-0.89062 1.2656-1.875 1.9219-2.8125l21.562-0.98438c10.875-0.51562 20.109-10.266 19.688-20.859l-0.1875-5.2969c-0.1875-4.5938-2.2969-8.9531-5.9531-12.328-4.3125-3.9844-10.359-6.1875-16.125-5.9062l-26.203 1.2188c-9.1875-7.5469-22.172-11.859-36.188-10.781l-71.859 5.6719c-24.891-27.75-52.969-39.328-77.812-49.5-0.46875-0.1875-0.9375-0.375-1.4062-0.60938v-49.125c0-0.09375-0.046875-0.14062-0.046875-0.23438 0-0.5625-0.1875-1.125-0.32812-1.6406-0.09375-0.42188-0.14062-0.84375-0.32812-1.2656-0.1875-0.46875-0.51562-0.79688-0.79688-1.2188s-0.51562-0.84375-0.89062-1.1719c-0.32812-0.28125-0.70312-0.46875-1.0781-0.70312-0.46875-0.32812-0.89062-0.65625-1.4531-0.89062-0.09375-0.046875-0.14062-0.09375-0.1875-0.09375-106.78-37.828-214.64 0.046875-320.63 112.31-105.61-111.38-213.1-148.87-319.5-111.19-0.09375 0.046875-0.14062 0.09375-0.1875 0.14062-0.51562 0.1875-0.98438 0.5625-1.4062 0.84375-0.375 0.23438-0.79688 0.42188-1.0781 0.75-0.375 0.32812-0.5625 0.75-0.84375 1.1719s-0.60938 0.75-0.79688 1.2188c-0.1875 0.375-0.23438 0.84375-0.32812 1.2656-0.14062 0.5625-0.32812 1.0781-0.32812 1.6406 0 0.09375-0.046875 0.14062-0.046875 0.23438v36.422c-13.875 5.625-20.156 9.4219-30.844 18.234-0.09375 0.09375-0.14062 0.1875-0.23438 0.28125-0.42188 0.375-0.70312 0.79688-1.0312 1.2656-0.28125 0.375-0.5625 0.70312-0.75 1.125s-0.28125 0.84375-0.375 1.3125c-0.14062 0.51562-0.28125 1.0312-0.32812 1.5938 0 0.14062-0.09375 0.23438-0.09375 0.375v31.688c-11.812 5.4375-20.438 9.5625-31.172 16.969-0.1875 0.14062-0.28125 0.32812-0.46875 0.46875-0.42188 0.32812-0.75 0.70312-1.0781 1.125-0.28125 0.375-0.5625 0.75-0.79688 1.1719s-0.375 0.84375-0.51562 1.3125c-0.14062 0.51562-0.28125 0.98438-0.32812 1.5 0 0.23438-0.14062 0.42188-0.14062 0.65625v465.61c0 4.2188 3.4219 7.6875 7.6875 7.6875h2.0156c1.2656 0 2.3906-0.375 3.4688-0.9375 0.14062-0.046875 0.28125-0.046875 0.375-0.09375 126.47-74.062 249.47-74.062 375.94 0 0.14062 0.09375 0.32812 0.09375 0.46875 0.14062 0.46875 0.23438 0.9375 0.375 1.4531 0.51562s0.98438 0.28125 1.5 0.28125c0.1875 0 0.32812 0.09375 0.46875 0.09375h1.9688c0.51562 0 0.9375-0.1875 1.4062-0.28125 0.51562-0.09375 1.0781-0.14062 1.5938-0.32812 0.046875 0 0.046875-0.046875 0.09375-0.046875 0.14062-0.046875 0.28125-0.1875 0.42188-0.28125 0.09375-0.046875 0.23438-0.046875 0.32812-0.09375 125.39-73.406 252.52-73.406 377.9 0 0.14063 0.09375 0.32813 0.09375 0.46875 0.14062 0.46875 0.23438 0.9375 0.375 1.4531 0.51562 0.51562 0.14062 0.98437 0.28125 1.5 0.28125 0.1875 0 0.32812 0.09375 0.46875 0.09375 0.32812 0 0.60937-0.14062 0.9375-0.1875 0.51562-0.046875 1.0312-0.14062 1.5469-0.32812 0.46875-0.14062 0.89063-0.375 1.3125-0.60938 0.42188-0.23438 0.79688-0.46875 1.1719-0.79688 0.42187-0.32812 0.70312-0.75 1.0312-1.1719 0.1875-0.23438 0.46875-0.42188 0.60937-0.70312 0.09375-0.14062 0.09375-0.32812 0.14063-0.46875 0.23437-0.46875 0.375-0.9375 0.51562-1.4531 0.14063-0.51562 0.28125-0.98438 0.28125-1.5 0-0.1875 0.09375-0.32812 0.09375-0.46875v-82.781l152.39-92.484c1.7344-1.0781 3-2.8125 3.4688-4.7812 0.46875-2.0156 0.14062-4.125-0.98438-5.8594l-49.781-78.984c-2.25-3.5625-6.9375-4.6406-10.5-2.4375l-0.23438 0.14062c-46.453-70.875-49.922-113.67-52.172-142.22-0.046875-0.51562-0.09375-0.98438-0.14062-1.4531l46.453-3.6562c13.734-1.0781 26.109-7.125 33.891-16.5zm21.609-32.906c1.6875-0.09375 3.75 0.70312 5.0625 1.875 0.375 0.32812 0.98438 0.98438 0.98438 1.6406l0.1875 5.2969c0.09375 2.1094-2.7188 4.875-5.0625 4.9688l-15 0.70312c0.1875-2.0156 0.1875-4.0312 0-6-0.28125-2.6719-0.98438-5.25-1.9219-7.7344l15.75-0.70312zm-154.78-17.625-125.95 9.9375c-6.2344-7.6406-12.844-16.031-20.203-25.969-0.9375-1.2656-2.25-2.2031-3.7031-2.7188-2.8125-0.9375-3.1406-0.79688-10.875 2.625-39.094 17.391-60.844 26.766-64.594 27.938-34.734 10.641-69.047 10.078-81.656-1.3594-4.5469-4.125-6.0938-9.75-4.5938-17.344 0.51562-0.9375 4.5469-6.8906 33.281-20.109 18.75-8.625 41.203-17.297 59.203-24.281 17.859-6.9375 27.375-10.641 31.266-13.031 22.969-14.203 65.531-1.125 94.969 14.391 7.3125 3.8438 14.906 7.0781 22.688 10.312 0.14062 0.046875 0.28125 0.14062 0.42188 0.1875 2.0156 0.84375 3.9844 1.6875 6.0469 2.5312 21.422 8.7188 43.5 17.812 63.797 36.844zm-64.734 132.05c-0.375 0.79688-0.84375 1.7344-3.6562 1.7812-15.891 0.32812-69.703-0.65625-93.422-26.859-5.2031-5.7656-10.172-11.953-15-18.094l96.703-7.6406c10.219 15.422 19.5 42.281 15.375 50.812zm16.406 263.58c-46.828-20.766-101.11-25.734-158.72-14.062-30.281 6.1406-61.031 16.969-91.031 31.688 78.328-54.609 159.1-70.594 234.14-45.047l15.562 27.422zm-32.719-57.656 6.1875 10.875c-97.875-26.016-203.16 12.469-300.19 109.73l-1.5-362.02c15.75 3.0938 29.25 5.3438 34.734 5.3438 0.42188 0 0.75 0 1.0781-0.046875l12.047-0.9375c-3.0469 17.906 0.5625 31.594 10.969 40.641 5.4844 4.7812 12.328 7.5 19.547 9.0469 0.46875 19.641 5.5312 34.125 15.75 42.562 7.4062 6.0938 15.797 8.0156 23.156 8.2031 0.32812 6 2.0625 12.328 5.5312 18.656 7.1719 12.938 19.266 23.016 31.547 26.25 4.2656 1.125 8.25 1.5938 11.953 1.5938 10.219 0 18.375-3.5625 25.312-6.6094 5.8594-2.5781 10.594-4.5469 15.328-4.125 3.4688 2.0625 6.9375 4.1719 10.547 6.2812 21.562 12.75 43.875 25.922 54.984 41.016 1.2188 1.6406 6.1875 9.6094 25.453 43.5-3.2812 2.25-4.3594 6.6094-2.3906 10.078zm-110.06-110.77c-8.3438 3.6562-16.266 7.125-27.234 4.2188-8.1562-2.1562-17.016-9.7031-22.031-18.844-2.4844-4.5469-3.75-9-3.7969-12.797 5.4375-0.65625 16.828-1.2656 23.438-1.5938 1.9688-0.09375 3.6094-0.1875 5.0625-0.28125 3.1875 3.7031 6.375 7.4531 9.5625 11.484 4.5469 5.625 11.016 11.016 18.609 16.312-1.2188 0.51562-2.4375 0.98438-3.6094 1.5469zm-58.734-42.047c-5.3438 1.2188-15.469 2.2969-22.875-3.7969-6.2344-5.1562-9.6094-15.281-10.219-29.062 0.14062 0 0.28125 0.046875 0.42188 0.046875 9.9375 0 19.219-1.6406 25.453-3.3281 7.6875 10.594 16.781 20.906 26.344 31.688l2.25 2.5312c-9.75 0.51562-17.766 1.0781-21.422 1.9219zm-57.844-55.172c-6.7031-5.8125-8.3906-16.031-5.2031-30.328l34.734-2.7656c1.125 14.203 5.625 26.719 12.281 38.484-11.906 2.2969-31.688 3.375-41.812-5.3906zm30-52.641c-0.14062 1.0312-0.1875 1.9688-0.28125 3l-41.578 3.8906c-0.9375 0.09375-1.8281 0.42188-2.6719 0.79688l-19.781 1.5469c-5.6719 0.375-42.516-6.9375-81.469-15.562 37.875-14.766 73.875-27.938 79.547-28.406l240.37-18.984 4.6875 43.781-89.578 7.0781c-5.1094-6.3281-10.266-12.375-15.75-17.672-14.297-13.781-33.516-19.172-49.031-13.734-7.8281 2.7656-21.469 10.875-24.516 34.312zm83.672-61.969c10.078-4.4062 22.969-10.078 39.188-17.297 3.6094 4.7812 6.9844 9.1875 10.312 13.359zm110.48 50.812-4.6875-43.781 16.641-1.3125 4.6875 43.781zm8.8125-161.26v36.938c-3.75-1.6875-7.5-3.375-11.062-5.25-11.953-6.2812-73.453-36.609-110.16-13.875-2.8125 1.7344-15.984 6.8438-28.734 11.766-66.984 25.922-99.328 40.875-101.95 55.547-3.3281 16.312 3.2344 26.297 9.3281 31.828 1.2656 1.125 2.8125 1.9219 4.2188 2.9062l-31.969 2.5312c-4.3125 0.32812-16.734 4.4062-31.734 9.75l-0.09375-19.172c100.69-108 202.31-145.92 302.16-112.97zm-317.48 114.09 0.09375 23.625c-24.891 9.2344-51.656 19.875-60.141 23.25-3.0938 1.2656-5.0625 4.3594-4.7812 7.6875 0.23438 3.3281 2.6719 6.1406 5.9062 6.8906 8.4375 1.9219 34.406 7.875 59.25 12.984l1.5469 369.98c-100.55-102.89-202.74-138.79-304.03-106.78v-450.66c99.891-32.953 201.52 4.9688 302.16 112.97zm-312.47 354.19 1.5938 0.5625c0.42188 0.14062 0.89062 0.14062 1.3594 0.23438 0.32812 0.046875 0.65625 0.1875 1.0312 0.1875 0.09375 0 0.14062 0.046875 0.23438 0.046875 0.84375 0 1.6406-0.14062 2.4375-0.42188h0.14062c78.844-27.938 158.76-11.391 238.5 48.75-31.969-15.75-65.203-26.859-98.859-32.531-61.641-10.453-119.95-2.0625-169.78 23.859v-449.29c6.2812-4.9688 10.922-7.9219 18.328-11.203v412.55c0 3.2344 2.0156 6.0938 5.0625 7.2188zm-57.891 96.469v-449.53c6.375-4.1719 12.328-7.3125 19.172-10.594v417c0 0.1875 0.09375 0.32812 0.09375 0.46875 0.046875 0.51562 0.1875 0.98438 0.28125 1.5 0.14062 0.51562 0.28125 0.98438 0.51562 1.4531 0.09375 0.14062 0.09375 0.32812 0.14062 0.46875 0.14062 0.28125 0.42188 0.42188 0.60938 0.65625 0.32812 0.42188 0.65625 0.84375 1.0312 1.1719s0.75 0.5625 1.2188 0.79688c0.42188 0.23438 0.84375 0.46875 1.3125 0.60938 0.51562 0.1875 0.98438 0.23438 1.5469 0.32812 0.32812 0.046875 0.5625 0.1875 0.89062 0.1875 0.1875 0 0.32812-0.09375 0.46875-0.09375 0.51562-0.046875 0.98438-0.1875 1.5-0.28125 0.51562-0.14062 0.98438-0.28125 1.4531-0.51562 0.14062-0.09375 0.32812-0.09375 0.46875-0.14062 74.438-43.969 172.6-41.578 263.11 2.0156-36.047-11.672-72.047-17.766-107.72-17.766-61.547 0-124.13 17.719-186.14 52.219zm757.92-1.0781c-105.52-58.078-212.11-66.328-317.9-24.75 100.27-60.844 208.97-70.969 289.55-23.344 0.32813 0.1875 0.70313 0.23438 1.0312 0.375 0.32813 0.14062 0.60938 0.375 0.9375 0.46875 0.1875 0.046875 0.42188 0.046875 0.60938 0.09375 0.23437 0.046875 0.42187 0.046875 0.65625 0.09375 0.23437 0 0.46875 0.09375 0.65625 0.09375s0.375-0.14062 0.5625-0.14062c0.98437-0.09375 1.9219-0.32812 2.8125-0.79688 0.1875-0.09375 0.375-0.046875 0.5625-0.14062l20.484-12.422v60.516zm153.1-171.37-174.79 106.03-37.734-66.469 170.95-105.52zm-110.81-223.87c2.3438 30.047 6 75.141 54.375 149.06l-157.64 97.312c-22.406-39.422-25.172-43.219-26.109-44.484-12.984-17.578-36.656-31.594-59.531-45.094-18-10.641-35.016-20.719-42.844-30.422-8.5781-10.688-16.969-20.156-25.078-29.25-27.891-31.453-48.094-54.141-43.266-91.219 1.0312-8.0156 4.3594-18.328 14.344-21.844 9.9375-3.4688 23.297 0.65625 33.328 10.312 7.7812 7.5 15.094 16.828 22.828 26.719 5.9531 7.5938 12.141 15.469 18.797 22.828 27.328 30.141 82.594 32.344 105.09 31.875 7.875-0.14062 13.969-3.8906 17.156-10.453 7.3125-15.094-2.9531-42-12.234-58.828l100.64-7.9688c0.046875 0.51562 0.09375 0.9375 0.14062 1.4531zm6.1406-17.344-95.391 7.5469-4.6875-43.781 149.26-11.812c16.5-1.3125 31.5 7.7344 32.812 19.688 0.60938 5.7188-2.0156 10.219-4.3594 13.031-5.1094 6.1406-13.828 10.266-23.344 11.016l-54.234 4.2656zm-690.37-47.016c21.188-20.766 30.844-18.891 42.281-7.8281 5.5312 5.3438 10.734 10.406 27 6.1875 13.359-3.4688 19.875 5.2969 24.609 11.672 6.375 8.5781 12.375 16.688 37.406 9.8438 30.328-8.2969 39.516 12.562 44.438 23.812 0.98438 2.2031 2.3906 5.4375 3.2812 6.5156 3.6094 1.5469 5.5312 5.5781 4.3125 9.375-1.0312 3.2812-4.0312 5.3438-7.3125 5.3438-0.75 0-1.5469-0.09375-2.3438-0.375-6.4219-2.0156-9.2344-8.4844-12-14.719-5.4375-12.422-9.6562-19.781-26.344-15.188-35.156 9.6562-46.359-5.4844-53.766-15.469-4.9219-6.6562-5.625-6.7031-8.4375-6-24.609 6.375-34.781-3.4688-41.531-9.9844-2.7188-2.625-4.0781-3.8438-5.0625-3.75-1.3594 0.09375-5.5781 1.4531-15.844 11.531-3 2.9531-7.875 2.9062-10.828-0.09375s-2.9062-7.875 0.09375-10.828z" fill="#fff"/>
</svg>
