<?xml version="1.0" encoding="UTF-8"?>
<svg width="125pt" height="125pt" version="1.1" viewBox="0 0 1200 1200" xmlns="http://www.w3.org/2000/svg">
 <path d="m975.04 837.66h-170.29c145.68-131.39 91.16-305.14 59.641-375.85-2.0859-4.6016-5.9414-8.168-10.688-9.8945-4.75-1.7227-9.9961-1.457-14.547 0.73438-4.5547 2.1914-8.0273 6.1289-9.6406 10.918-11.078 31.262-41.227 60.625-64.562 79.762-3.0469 2.4766-7.3164 2.7891-10.691 0.78906-3.3789-2.0039-5.1523-5.8945-4.4414-9.7578 11.387-62.953 2.7891-127.89-24.594-185.71-2.2852-4.6016-6.3594-8.0625-11.273-9.5703-4.9102-1.5117-10.227-0.93359-14.699 1.5898-4.4766 2.5273-7.7148 6.7812-8.9609 11.766-20.02 83.383-141.27 123.65-108.1-107.07 0.76953-5.25-0.72266-10.586-4.1055-14.676-3.3828-4.0898-8.3438-6.5586-13.645-6.7852-5.3047-0.23047-10.461 1.7969-14.184 5.582-50.496 50.824-127.26 185.77-94.723 369.15 0.63672 3.2891-0.53125 6.6641-3.0664 8.8555-2.5312 2.1914-6.0391 2.8594-9.1992 1.7578-44.039-16.832-82.949-68.309-102.21-97.484-2.8125-4.1992-7.1953-7.0859-12.16-8.0117-4.9688-0.92969-10.098 0.17969-14.234 3.0781-4.1406 2.8984-6.9375 7.3398-7.7617 12.324-26.145 157.89 20.816 244.45 66.301 318.51h-148.16c-70.371 0.011719-150.24 47.309-159.27 151.14-1.0898 12.535 5.5195 29.027 19.859 29.027h1028.8c14.258 0 20.973-16.199 19.859-29.023-9.0273-103.84-88.852-151.14-159.2-151.14zm-150.57 108.47h-42.996c-5.1758 0-9.375 4.1992-9.375 9.375s4.1992 9.375 9.375 9.375h37.98c-5.3008 25.188-3.6562 30.785-2.9141 34.195h-58.062c3.1094-14.32-4.0938-51.859-19.594-80.383h35.5c5.1758 0 9.375-4.1992 9.375-9.375 0-5.1797-4.1992-9.375-9.375-9.375h-47.578c-13.621-18.152-31.129-33.023-51.242-43.531h223.93c-35.918 18.773-62.902 51.047-75.02 89.719zm-287.97 52.945h-75.012c-1.7617-2.5156-2.4922-5.6133-2.043-8.6523 15.582-179.06 265.59-178.69 281.12 0.003906h0.003906c0.44922 3.0391-0.28125 6.1328-2.043 8.6484h-75.012c-1.6641-21.523-14.121-40.742-33.09-51.051-18.969-10.312-41.867-10.312-60.836 0-18.969 10.309-31.426 29.523-33.09 51.051zm108.02 0h-89.105c1.5156-14.844 10.32-27.957 23.488-34.977 13.164-7.0195 28.961-7.0195 42.129 0 13.168 7.0195 21.973 20.133 23.488 34.977zm-263.96-34.195h63.895c-5.3008 25.188-3.6562 30.785-2.9141 34.195h-58.066c0.73828-3.4141 2.3828-9.0117-2.9141-34.195zm162.43-127.22c-20.512-34.969-23.27-81.055-10.117-157.01 24.645 52.262 77.844 106.99 101.46-62.418 75.137 136.7 62.879 188.44 38.637 219.43zm-217.57-315.57c20.508 31.059 62.227 85.957 111.15 104.67v-0.003906c6.2344 2.3281 13.09 2.3633 19.348 0.10547 6.2539-2.2578 11.508-6.6641 14.82-12.434s4.4648-12.527 3.2617-19.066c-31.191-175.82 41.621-304.41 89.629-352.66-36.961 257.16 119.86 218.53 144.83 114.31v-0.003906c25.641 54.309 33.633 115.28 22.859 174.36-1.2734 7.5664 0.60156 15.328 5.1875 21.48 4.5898 6.1562 11.492 10.164 19.109 11.105 7.6172 0.94141 15.285-1.2734 21.234-6.1289 25.188-20.641 57.824-52.66 70.43-88.383 30.91 69.367 85.422 243.53-71.48 368.22h-80.43c29.164-49.613 15.246-119.57-44.605-228.46h-0.003906c-2.4844-4.543-6.7695-7.832-11.805-9.0586-5.0312-1.2266-10.348-0.27344-14.645 2.6172-4.2969 2.8945-7.1797 7.4648-7.9375 12.59-19.398 133.58-43.543 106.05-66.539 57.305v-0.003907c-2.2578-4.7227-6.4141-8.2656-11.434-9.7461-5.0195-1.4766-10.434-0.75391-14.891 1.9883-4.457 2.7461-7.5391 7.2539-8.4766 12.406-13.465 74.438-11.664 122.63 6.6758 160.36h-126.47c-47.629-76.973-96.012-157.36-69.82-315.57zm199.07 334.32c-20.121 10.508-37.637 25.379-51.266 43.527h-85.168c-5.1797 0-9.375 4.1992-9.375 9.375 0 5.1797 4.1953 9.375 9.375 9.375h73.086c-4.7188 8.7734-8.625 17.957-11.672 27.441h-73.918c-12.109-38.672-39.082-70.945-74.988-89.719zm-344.07 142.66c1.5156-14.844 10.32-27.957 23.488-34.977 13.164-7.0195 28.965-7.0195 42.129 0 13.168 7.0195 21.973 20.133 23.488 34.977zm108.1 0c-1.6641-21.527-14.121-40.742-33.09-51.051-18.969-10.312-41.867-10.312-60.836 0-18.969 10.309-31.426 29.523-33.09 51.051h-75.074c-1.6875-2.5469-2.3906-5.6211-1.9805-8.6484v-0.003906c8.0586-92.574 76.422-134.01 140.6-134.01 64.152 0 132.48 41.438 140.52 134.02h0.003906c0.41016 3.0273-0.29297 6.0977-1.9805 8.6484zm641.91 0c1.5312-14.832 10.344-27.93 23.5-34.934 13.16-7.0078 28.945-7.0078 42.105 0 13.16 7.0039 21.969 20.102 23.5 34.934zm183.17 0h-75.074 0.003906c-1.668-21.527-14.121-40.742-33.09-51.051-18.969-10.312-41.871-10.312-60.84 0-18.969 10.309-31.422 29.523-33.09 51.051h-75.074c-1.6836-2.5469-2.3867-5.6211-1.9766-8.6484v-0.003906c8.0508-92.574 76.414-134.01 140.59-134.01 64.152 0 132.48 41.438 140.52 134.02h0.003906c0.41016 3.0273-0.29297 6.0977-1.9805 8.6484z" fill="#fff"/>
 <path d="m387.86 448.2c49.168-55.137 10.535-100.06 4.2852-160.62-2.5078-24.148-24.629-21.492-35.102-9.2383-51.484 60.156-23.309 117.87-4.375 164.33 6.4375 15.836 21.914 20.418 35.191 5.5352zm-16.57-157.67c0.61719-0.6875 1.3242-1.2891 2.1055-1.7852 11.887 75.785 38.887 103.9 0.47656 146.98-0.76953 0.88281-1.6484 1.6641-2.6211 2.3242-0.875-1.5586-1.6133-3.1875-2.207-4.875-21.578-53.016-38.625-94.887 2.2461-142.64z" fill="#fff"/>
 <path d="m803.18 314.98h0.007813l0.78516-1.9492c17.98-44.168 34.957-85.891-4.6211-132.13-9.6289-11.301-29.277-12.531-31.457 8.4336-5.0469 48.766-36.453 85.375 3.8984 130.63v-0.003907c2.4492 3.7891 6.2773 6.4766 10.672 7.4961 4.3984 1.0156 9.0156 0.28516 12.883-2.043 3.8633-2.3281 6.6719-6.0664 7.832-10.43zm-16.988-120.61c30.77 37.008 18.008 68.371 0.41016 111.59l-0.67969 1.6758-0.13672-0.15234c-31.812-35.688-5.7695-63.336 0.40625-113.11z" fill="#fff"/>
</svg>
