<?xml version="1.0" encoding="UTF-8"?>
<svg width="250pt" height="250pt" version="1.1" viewBox="0 0 1200 1200" xmlns="http://www.w3.org/2000/svg">
 <path d="m1074.2 1046.2c65.672 0 65.672-97.688 0-97.688h-949.03c-65.672 0-64.641 97.688 1.2188 97.688zm0 16.641h-947.9c-87.609 0-88.922-130.97-1.2188-130.97l42.891-0.046875c-15.469-16.688-23.109-39.188-21.047-61.828 2.0625-22.688 13.641-43.406 31.828-57.047l2.7656-1.9688h0.046874c-20.906-14.297-33.844-37.641-34.875-62.906-1.0781-25.312 9.7969-49.641 29.391-65.672 2.2969-1.8281 4.6406-3.5625 7.125-5.1562-22.312-13.781-36.094-37.875-36.703-64.031-57.328-11.156-83.578-88.266-30.844-127.87l172.74-129.61-0.046875-156.47c0.42188-25.922 21.328-46.781 47.203-47.203h52.594c25.453 0.65625 45.516 21.75 44.953 47.203v48l130.78-98.062c21.234-16.031 50.484-16.031 71.719 0l448.22 336.14h-0.046875c15.094 11.109 25.078 27.75 27.75 46.312 2.6719 18.516-2.2031 37.312-13.547 52.219-10.5 14.062-25.734 23.859-42.891 27.609-0.60938 26.625-14.344 51.234-36.703 65.766 22.547 14.625 36.328 39.516 36.656 66.422 0.32812 26.859-12.75 52.172-34.922 67.359l2.7656 1.9688v-0.046874c18.188 13.688 29.766 34.406 31.875 57.047 2.0625 22.688-5.5781 45.188-21.047 61.875h40.5c87.703 0 87.703 130.97 0 130.97zm-880.55-131.02h66.562c0.375-0.375 0.79688-0.70312 1.2656-0.98438 23.766-15.328 34.594-44.484 26.578-71.578-7.9688-27.094-32.859-45.703-61.125-45.703s-53.156 18.609-61.125 45.703c-8.0156 27.094 2.8125 56.25 26.578 71.578 0.46875 0.28125 0.89062 0.60938 1.2656 0.98438zm92.25 0h199.13v-95.438h-188.9c18.047 30.562 13.875 69.328-10.219 95.391zm215.76 0h196.03v-234.05c-0.42188-16.688-13.828-30.141-30.516-30.562h-134.95c-16.688 0.42188-30.141 13.828-30.562 30.516zm212.68 0h201.42c-24.094-26.016-28.266-64.828-10.219-95.391h-191.21zm227.11 0h66.516c0.375-0.375 0.84375-0.70312 1.2656-0.98438 23.766-15.328 34.594-44.484 26.578-71.578-7.9688-27.094-32.859-45.703-61.125-45.703-28.266 0-53.156 18.609-61.125 45.703s2.8125 56.25 26.578 71.578c0.46875 0.28125 0.89062 0.60938 1.2656 0.98438zm-387.84-142.6v52.594c0 4.6406 3.75 8.3438 8.3438 8.3438s8.3438-3.7031 8.3438-8.3438v-52.594c0-4.5938-3.75-8.2969-8.3438-8.2969s-8.3438 3.7031-8.3438 8.2969zm160.74 30.562h204.24c2.5312-2.4844 5.2031-4.7344 8.0156-6.8438l2.7656-1.9688c-34.031-23.344-44.906-68.672-25.125-104.86h-189.89zm-431.26 0h201.94v-113.67h-187.6c19.781 36.188 8.9062 81.516-25.172 104.86l2.7656 1.9688h0.046875c2.8125 2.1094 5.4844 4.3594 8.0156 6.8438zm-56.156-138.84c-29.672 0-55.453 20.484-62.109 49.406s7.5 58.594 34.219 71.578c18-6.6562 37.781-6.6562 55.781 0 26.719-12.984 40.875-42.656 34.219-71.578s-32.438-49.406-62.109-49.406zm58.359 8.4844h200.53c4.4062-22.266 23.719-38.438 46.406-38.859h134.95c22.688 0.42188 42 16.594 46.406 38.859h202.78c4.4062-4.6406 9.375-8.7656 14.719-12.234-22.219-14.391-35.953-38.859-36.656-65.344-0.375-12.422 2.0156-24.75 7.0312-36.094h-194.72c-8.4375 13.828-23.344 22.453-39.562 22.875h-134.95c-16.406-0.23438-31.547-8.8594-40.125-22.875h-192.37c16.969 36.328 4.5 79.641-29.156 101.44 5.3438 3.4688 10.312 7.5938 14.719 12.234zm412.4-139.22v-99.422c-0.42188-16.688-13.828-30.094-30.516-30.562h-134.95c-16.688 0.46875-30.094 13.875-30.562 30.562v100.64c0.42188 16.688 13.875 30.141 30.562 30.562h134.95c16.828-1.0781 30.047-14.812 30.516-31.688zm15.75 8.8125 198.19 0.046875c4.2656-5.2969 9.2344-9.9844 14.766-13.922l-132.79-99.75h-79.641c0.23438 1.7812 0.32812 3.6094 0.32812 5.3906v99.469c0 2.9531-0.28125 5.9531-0.89062 8.8594zm-434.72 13.594-0.46875-0.60938v-0.046875c-5.0156-6.8438-11.344-12.609-18.656-16.969l-58.547 44.25v-0.046875c-10.922 8.5781-24.094 13.781-37.875 15 1.2188 24.047 16.312 45.141 38.672 54.094 16.266-5.3438 33.891-5.3438 50.156 0 16.969-7.2188 29.953-21.469 35.625-39.047 5.625-17.578 3.375-36.75-6.1875-52.5-0.84375-1.4062-1.7344-2.7656-2.7188-4.125zm10.594-13.5h196.36c-0.42188-2.5781-0.65625-5.1094-0.65625-7.6875v-100.64c0-1.7812 0.09375-3.6094 0.32812-5.3906h-80.766l-130.92 98.953c5.8594 4.2188 11.109 9.1406 15.656 14.766zm419.26-130.36h62.859l-172.87-129.98-171.89 129.98h64.078c8.25-15.281 24.141-24.938 41.484-25.219h134.95c17.344 0.28125 33.188 9.9375 41.438 25.219zm-292.22-169.03v-60.469c0.65625-16.266-12-29.906-28.266-30.562h-52.547c-16.688 0.42188-30.094 13.875-30.516 30.562v144zm583.45 408.56c22.312-9.5156 37.266-30.938 38.531-55.172-14.438-0.32812-28.453-5.2031-39.984-13.922l-57.797-43.453c-8.6719 5.1094-15.891 12.328-20.953 21-6.0469 10.547-9.0469 22.594-8.5781 34.781 0.70312 24.844 15.797 47.062 38.625 56.859 16.312-5.3906 33.891-5.3906 50.203 0zm84.844-94.359c8.6719-11.391 12.422-25.781 10.359-39.938-2.0156-14.203-9.7031-26.953-21.234-35.391l-448.18-336.19c-15.375-11.484-36.469-11.484-51.844 0l-448.18 336.19c-57.281 43.031 8.1094 130.45 65.484 87.375 134.11-101.44 268.26-202.82 402.47-304.18 3.1406-2.3906 7.5-2.25 10.453 0.32812l404.29 303.79c24.469 17.484 58.453 12.141 76.359-12zm-82.031 228c26.672-12.984 40.875-42.703 34.219-71.625-6.7031-28.922-32.438-49.406-62.109-49.406s-55.453 20.484-62.109 49.406 7.5 58.641 34.172 71.625c18-6.7031 37.828-6.7031 55.828 0z" fill="#fff" fill-rule="evenodd"/>
</svg>
